<svg width="96" height="36" viewBox="0 0 96 36" fill="none" xmlns="http://www.w3.org/2000/svg">
<g clip-path="url(#clip0_1_426)">
<g clip-path="url(#clip1_1_426)">
<path d="M94.4679 4.36932C91.4009 10.409 89.4353 16.6924 87.1033 23.0138C86.4971 24.6637 84.2227 23.6956 84.3522 22.1639C84.5643 19.5684 85.0589 16.9832 85.7568 14.4389C80.8294 19.1453 74.746 23.1198 69.1491 26.2181C61.6434 30.3705 53.3672 33.3697 44.9206 34.8987C30.9162 37.4329 11.288 35.3488 1.16013 24.0943C0.580828 23.4467 1.50132 22.5675 2.18539 22.8713C9.13091 25.9 15.2731 29.2049 22.9103 30.3532C30.3866 31.4746 38.3065 31.1658 45.6747 29.4556C53.4625 27.644 60.6085 24.1396 67.2732 19.7676C72.8443 16.1081 77.5181 11.5883 82.4906 7.32992C77.814 7.47692 73.0826 6.80102 69.1497 4.99252C66.8375 3.92782 67.9606 0.412819 70.4517 0.774918C74.2327 1.32312 77.7848 2.33742 81.6553 2.36702C85.2441 2.39782 88.6855 1.81942 92.1939 1.13532C93.8782 0.799419 95.1984 2.93162 94.4679 4.36932Z" fill="#E81C2E" fill-opacity="0.15"/>
</g>
</g>
<defs>
<clipPath id="clip0_1_426">
<rect width="96" height="36" fill="white" transform="matrix(1 0 0 -1 0 36)"/>
</clipPath>
<clipPath id="clip1_1_426">
<rect width="95" height="36" fill="white" transform="matrix(1 0 0 -1 0 36)"/>
</clipPath>
</defs>
</svg>
