<svg width="96" height="36" viewBox="0 0 96 36" fill="none" xmlns="http://www.w3.org/2000/svg">
<g clip-path="url(#clip0_1_414)">
<g clip-path="url(#clip1_1_414)">
<path d="M94.4679 31.6307C91.4009 25.591 89.4353 19.3076 87.1033 12.9862C86.4971 11.3363 84.2227 12.3044 84.3522 13.8361C84.5643 16.4316 85.0589 19.0168 85.7568 21.5611C80.8294 16.8547 74.746 12.8802 69.1491 9.78189C61.6434 5.62949 53.3672 2.63032 44.9206 1.10125C30.9162 -1.43294 11.288 0.651177 1.16012 11.9057C0.580813 12.5533 1.50131 13.4325 2.18538 13.1287C9.1309 10.1 15.2731 6.79509 22.9103 5.64677C30.3866 4.5254 38.3065 4.8342 45.6747 6.54436C53.4625 8.35598 60.6085 11.8604 67.2732 16.2324C72.8443 19.8919 77.5181 24.4117 82.4906 28.6701C77.814 28.5231 73.0826 29.199 69.1497 31.0075C66.8375 32.0722 67.9606 35.5872 70.4517 35.2251C74.2327 34.6769 77.7848 33.6626 81.6553 33.633C85.2441 33.6022 88.6855 34.1806 92.1939 34.8647C93.8782 35.2006 95.1984 33.0684 94.4679 31.6307Z" fill="#E81C2E" fill-opacity="0.15"/>
</g>
</g>
<defs>
<clipPath id="clip0_1_414">
<rect width="96" height="36" fill="white"/>
</clipPath>
<clipPath id="clip1_1_414">
<rect width="95" height="36" fill="white"/>
</clipPath>
</defs>
</svg>
